<svg width="24" height="24" viewBox="0 0 24 24" fill="none" xmlns="http://www.w3.org/2000/svg">
<path d="M9.5822 21C10.1345 21 10.5822 20.5523 10.5822 20C10.5822 19.4477 10.1345 19 9.5822 19C9.02992 19 8.5822 19.4477 8.5822 20C8.5822 20.5523 9.02992 21 9.5822 21Z" fill="#424242"/>
<path d="M20.0822 21C20.6345 21 21.0822 20.5523 21.0822 20C21.0822 19.4477 20.6345 19 20.0822 19C19.5299 19 19.0822 19.4477 19.0822 20C19.0822 20.5523 19.5299 21 20.0822 21Z" fill="#424242"/>
<path fill-rule="evenodd" clip-rule="evenodd" d="M3.0822 2C2.52992 2 2.0822 2.44772 2.0822 3C2.0822 3.55228 2.52992 4 3.0822 4H5.26907L7.59935 15.1854C7.64375 15.4222 7.77164 15.6296 7.95129 15.7759C8.13112 15.9219 8.36026 16.0048 8.60118 16H20.2135C20.5315 16.0002 20.8398 15.8902 21.0858 15.6887C21.3318 15.4872 21.5003 15.2067 21.5628 14.8948C21.5646 14.8856 21.5663 14.8764 21.5679 14.8671L22.9767 6.62666C23.0128 6.43278 23.0068 6.23332 22.959 6.04185C22.9097 5.84438 22.8171 5.66032 22.6881 5.50297C22.559 5.34561 22.3966 5.21886 22.2126 5.13188C22.0288 5.045 21.828 4.99996 21.6247 5H7.52034L7.06118 2.79605C6.96457 2.33233 6.55588 2 6.0822 2H3.0822ZM7.93701 7L9.39534 14H19.6871L20.8839 7H7.93701Z" fill="#424242"/>
</svg>
