<svg width="14" height="14" viewBox="0 0 14 14" fill="none" xmlns="http://www.w3.org/2000/svg">
<g clip-path="url(#clip0_1_68)">
<path d="M2.75394 13.038L2.75397 13.0378L3.48022 8.89908L3.50336 8.7672L3.40642 8.67486L0.323962 5.73852C0.323948 5.7385 0.323933 5.73849 0.323919 5.73848C0.175218 5.59649 0.271186 5.35855 0.433786 5.33569L0.434153 5.33563L4.7199 4.72663L4.84911 4.70827L4.90791 4.59177L6.74998 0.942214V11.386L3.04638 13.2902C2.91549 13.3573 2.71694 13.2482 2.75394 13.038ZM7.24998 11.386V0.937013L9.09467 4.59177L9.15348 4.70827L9.28269 4.72663L13.5684 5.33563L13.5688 5.33569C13.7313 5.35854 13.8273 5.59625 13.678 5.73826L13.6779 5.73838L10.5961 8.67488L10.4992 8.76723L10.5224 8.89908L11.2486 13.0378L11.2486 13.038C11.2856 13.2481 11.0872 13.3573 10.9563 13.2902C10.9563 13.2902 10.9562 13.2902 10.9562 13.2902L7.24998 11.386Z" fill="#FFC90A" stroke="#FFC90A" stroke-width="0.5"/>
</g>
<defs>
<clipPath id="clip0_1_68">
<rect width="14" height="14" fill="white"/>
</clipPath>
</defs>
</svg>
