<svg width="14" height="14" viewBox="0 0 14 14" fill="none" xmlns="http://www.w3.org/2000/svg">
<g clip-path="url(#clip0_1_70)">
<path d="M3.04532 13.2903L3.04541 13.2907C2.91452 13.3568 2.71703 13.2476 2.75394 13.038L2.75397 13.0378L3.48022 8.89908L3.50336 8.7672L3.40642 8.67486L0.323962 5.73852C0.323948 5.7385 0.323933 5.73849 0.323919 5.73848C0.175218 5.59649 0.271186 5.35855 0.433786 5.33569L0.434153 5.33563L4.7199 4.72663L4.84911 4.70827L4.90791 4.59177L6.81888 0.805713C6.89878 0.647529 7.10373 0.647505 7.18367 0.805643C7.18369 0.805667 7.1837 0.80569 7.18371 0.805713L9.09467 4.59177L9.15348 4.70827L9.28269 4.72663L13.5684 5.33563L13.5688 5.33569C13.7313 5.35854 13.8273 5.59625 13.678 5.73826L13.6779 5.73838L10.5961 8.67488L10.4992 8.76723L10.5224 8.89908L11.2486 13.0378L11.2486 13.038C11.2856 13.2481 11.0872 13.3573 10.9563 13.2902C10.9563 13.2902 10.9562 13.2902 10.9562 13.2902L7.11423 11.3163L6.99996 11.2575L6.88569 11.3163L3.04532 13.2903ZM13.6036 5.08812C13.9895 5.14237 14.1391 5.64462 13.8504 5.91937L10.7686 8.85587L11.4949 12.9946C11.5631 13.3822 11.1799 13.6859 10.8421 13.5126L13.6036 5.08812Z" stroke="#FFC90A" stroke-width="0.5"/>
</g>
<defs>
<clipPath id="clip0_1_70">
<rect width="14" height="14" fill="white"/>
</clipPath>
</defs>
</svg>
