<svg width="24" height="24" viewBox="0 0 24 24" fill="none" xmlns="http://www.w3.org/2000/svg">
<path d="M14 13.5942V19H11.8007V13.5942L10.1839 13.589V11.4319L11.8007 11.4372V9.84817C11.8007 8.00389 12.9123 7 14.5389 7C15.3181 7 15.9881 7.05696 16.1839 7.08377V9.01309H15.0547C14.1705 9.01309 14 9.43824 14 10.0628V11.4372H16.1095L15.8349 13.5942H14Z" fill="#333333"/>
<path fill-rule="evenodd" clip-rule="evenodd" d="M17 5H7C5.89543 5 5 5.89543 5 7V17C5 18.1046 5.89543 19 7 19H17C18.1046 19 19 18.1046 19 17V7C19 5.89543 18.1046 5 17 5ZM7 3C4.79086 3 3 4.79086 3 7V17C3 19.2091 4.79086 21 7 21H17C19.2091 21 21 19.2091 21 17V7C21 4.79086 19.2091 3 17 3H7Z" fill="#333333"/>
</svg>
