<svg width="24" height="24" viewBox="0 0 24 24" fill="none" xmlns="http://www.w3.org/2000/svg">
<path fill-rule="evenodd" clip-rule="evenodd" d="M9.50037 3C5.7334 3 2.71706 5.75889 3.02103 9.60249C3.28858 12.9818 5.67612 16 9.50037 16C13.3261 16 15.7074 12.9798 15.9796 9.60438C16.2843 5.82132 13.2757 3 9.50037 3ZM9.50001 14C8.00001 14 5.00001 13.1 5.00001 9.5C5.00001 5.9 8.00001 5 9.50001 5C11.75 5 14 5.75 14 9.5C14 13.25 10.25 14 9.50001 14Z" fill="#4F4F4F"/>
<path fill-rule="evenodd" clip-rule="evenodd" d="M15.4999 15.5C15.8904 15.1095 16.5236 15.1095 16.9141 15.5L20.7071 19.2929C21.0976 19.6834 21.0976 20.3166 20.7071 20.7071C20.3166 21.0976 19.6834 21.0976 19.2929 20.7071L15.4999 16.9142C15.1094 16.5237 15.1094 15.8905 15.4999 15.5Z" fill="#4F4F4F"/>
</svg>
