<svg width="24" height="24" viewBox="0 0 24 24" fill="none" xmlns="http://www.w3.org/2000/svg">
<path d="M12.0004 1.40002C6.59638 1.40002 2.19998 5.79562 2.19998 11.2C2.19998 16.604 6.59638 21 12.0004 21C17.4044 21 21.8 16.604 21.8 11.2C21.8 5.79562 17.4044 1.40002 12.0004 1.40002ZM12.6999 2.92626C13.4691 3.20283 14.2219 3.93298 14.8485 5.0969C14.9912 5.36175 15.1244 5.64782 15.2485 5.95066C14.4543 6.12316 13.5974 6.23676 12.6999 6.27566V2.92626ZM11.3001 2.92642V6.27406C10.4029 6.23484 9.54571 6.12265 8.75163 5.95031C8.87569 5.6475 9.00897 5.36155 9.15147 5.09671C9.77803 3.93311 10.5308 3.20311 11.2999 2.92623L11.3001 2.92642ZM15.5617 3.58766C16.3839 3.97204 17.1332 4.48518 17.7834 5.10202C17.4225 5.2764 17.0282 5.43483 16.6084 5.57638C16.4492 5.17358 16.2735 4.79074 16.081 4.43326C15.9207 4.13545 15.7471 3.85278 15.5617 3.58762V3.58766ZM8.43887 3.58797C8.2534 3.85297 8.07996 4.13561 7.91967 4.43329C7.72717 4.79095 7.55123 5.17377 7.39202 5.57673C6.97218 5.43517 6.57794 5.27673 6.21718 5.10237C6.86734 4.48549 7.6167 3.97253 8.43875 3.58801L8.43887 3.58797ZM18.7441 6.18405C19.6544 7.40749 20.2389 8.88841 20.3711 10.4997H17.5853C17.5356 9.22121 17.3505 8.01073 17.0503 6.91137C17.6567 6.70794 18.2458 6.42401 18.7439 6.18401L18.7441 6.18405ZM5.25686 6.18452C5.77422 6.46171 6.34186 6.705 6.95078 6.91092C6.65047 8.01044 6.46546 9.22108 6.41562 10.4997H3.63014C3.76249 8.8886 4.3467 7.4078 5.25686 6.18448V6.18452ZM8.30187 7.29044C9.23923 7.50372 10.247 7.63607 11.3006 7.67685V10.4996L7.81767 10.4998C7.9072 9.38465 8.04939 8.23917 8.30203 7.29061L8.30187 7.29044ZM15.6991 7.2906C15.9625 8.26152 16.1334 9.34748 16.1834 10.4997H12.7003V7.67688C13.7541 7.6361 14.7619 7.50391 15.6992 7.29063L15.6991 7.2906ZM6.41546 11.8994C6.465 13.1733 6.64874 14.3794 6.94702 15.4758C6.3367 15.6824 5.76826 15.9272 5.24998 16.2056C4.34358 14.9841 3.62982 13.52 3.62982 11.9036L6.41546 11.8994ZM7.81735 11.8994H11.3005V14.7088C10.2456 14.7497 9.23655 14.882 8.29811 15.0958C8.03654 14.128 7.86703 13.0466 7.81731 11.8992L7.81735 11.8994ZM12.7001 11.8994H16.1834C16.1337 13.0468 15.9641 14.1282 15.7026 15.096C14.7643 14.8822 13.7551 14.7497 12.7003 14.7089L12.7001 11.8994ZM17.585 11.8994H20.3708C20.2389 13.5068 19.657 14.9842 18.7506 16.2058C18.2323 15.9274 17.6636 15.6827 17.0532 15.4758C17.3515 14.3796 17.5354 13.1733 17.585 11.8994ZM12.7001 16.1102C13.5997 16.1494 14.4583 16.2633 15.2541 16.4366C15.1286 16.7441 14.9934 17.0341 14.8489 17.3025C14.2222 18.4663 13.4695 19.1964 12.7003 19.4732L12.7001 16.1102ZM11.3003 16.1104V19.473C10.5311 19.1963 9.77827 18.4661 9.15187 17.3025C9.00733 17.0341 8.87218 16.7439 8.74671 16.4366C9.54235 16.2633 10.4011 16.1496 11.3005 16.1103L11.3003 16.1104ZM16.6131 16.811C17.035 16.9537 17.4309 17.1129 17.7931 17.2885C17.1406 17.9093 16.388 18.4256 15.5617 18.8118C15.7472 18.5466 15.9208 18.2638 16.0812 17.9659C16.2756 17.6048 16.4528 17.2181 16.6133 16.8109L16.6131 16.811ZM7.38751 16.8112C7.54782 17.2184 7.72516 17.6051 7.91955 17.966C8.07986 18.2638 8.25345 18.5465 8.43891 18.8116C7.61282 18.4255 6.86014 17.9093 6.20782 17.2887C6.56986 17.1132 6.96579 16.9537 7.38751 16.8112Z" fill="#333333"/>
</svg>
